<svg width="1330" height="1048" xmlns="http://www.w3.org/2000/svg">
    <g fill="#000" fill-rule="evenodd">
        <path d="m665.296 0-.001.009 6.406.185c220.45 6.554 373.905 27.694 460.365 63.42 17.823 6.268 22.577 24.01 14.262 53.226l-84.473 475.12c-6.56 34.477-21.65 56.6-45.273 66.368-35.357 14.62-134.706 69.442-350.726 69.679H664.447c-216.027-.237-315.376-55.058-350.733-69.679-23.622-9.768-38.714-31.89-45.274-66.367L183.968 116.84c-8.315-29.216-3.561-46.958 14.262-53.227C285.563 27.527 441.252 6.323 665.296 0L665 .009l.148-.005.148-.004Z"/>
        <path d="M1063.012 596.859C1225.095 615.592 1330 661.618 1330 774.695c0 120.498-297.73 272.5-665 272.5S0 895.193 0 774.695c0-112.387 103.629-158.538 264.028-177.49L269.264 742c2.074 25.589 17.32 47.262 45.736 65.02 42.625 26.636 172.559 73.41 350 73.41s302-43.657 350-73.41c32-19.836 48-41.51 48-65.02ZM675.997 584c117.66.008 227.89.232 323.103 6.997H330.9C429.074 584.022 543.214 584 665 584Z"/>
    </g>
</svg>
